<svg width="320" height="74" viewBox="0 0 320 74" fill="none" xmlns="http://www.w3.org/2000/svg">
<path d="M0.00263336 53.3249C-0.0412002 50.6492 0.462605 47.9929 1.48296 45.5199C2.50331 43.0469 4.01856 40.8098 5.93518 38.9465C7.79961 37.0133 10.0395 35.4835 12.5167 34.4514C14.9939 33.4193 17.6558 32.9068 20.3383 32.9455C24.7352 32.8987 29.0211 34.3286 32.5127 37.0071V12.598H40.6818V73.7519H20.3383C17.6602 73.7646 15.0062 73.2445 12.5302 72.2219C10.0541 71.1992 7.8052 69.6943 5.91371 67.7943C4.02222 65.8943 2.52579 63.6371 1.51112 61.1533C0.496445 58.6695 -0.016286 56.0086 0.00263336 53.3249ZM8.11627 53.3249C8.09125 54.936 8.3997 56.5348 9.02218 58.0205C9.64466 59.5062 10.5676 60.8464 11.7329 61.9567C12.8396 63.1238 14.1756 64.0485 15.6567 64.6723C17.1378 65.2961 18.7319 65.6055 20.3383 65.5811H32.5127V53.3249C32.5158 51.7221 32.203 50.1346 31.5922 48.6534C30.9814 47.1722 30.0846 45.8265 28.9534 44.6935C27.8222 43.5606 26.4788 42.6628 25.0003 42.0516C23.5219 41.4405 21.9375 41.128 20.3383 41.1322C18.7375 41.1072 17.1486 41.4101 15.6688 42.0224C14.189 42.6347 12.8497 43.5435 11.7329 44.693C10.5676 45.8033 9.64466 47.1436 9.02218 48.6292C8.3997 50.1149 8.09125 51.7137 8.11627 53.3249Z" fill="white"/>
<path d="M60.1375 57.45H52.7298C53.5171 59.8136 55.0512 61.856 57.0999 63.2681C59.1652 64.7961 61.671 65.6081 64.238 65.5811H84.534V73.7121H64.1904C61.5157 73.7248 58.865 73.206 56.3916 72.1858C53.9181 71.1657 51.671 69.6643 49.78 67.7685C47.889 65.8728 46.3918 63.6202 45.3747 61.141C44.3577 58.6619 43.8411 56.0053 43.8548 53.3248C43.8548 47.9199 45.9973 42.7363 49.8109 38.9145C53.6246 35.0926 58.7971 32.9455 64.1904 32.9455C69.5761 32.9726 74.7337 35.1282 78.5428 38.944C82.3518 42.7598 84.5048 47.9275 84.534 53.3248V57.3864H60.1375V57.45ZM64.1904 41.1322C61.6328 41.1015 59.1321 41.8895 57.0523 43.3816C55.0287 44.8363 53.5157 46.895 52.7298 49.2633H75.7303C74.9293 46.8898 73.3996 44.831 71.3602 43.3816C69.2714 41.8835 66.7587 41.0953 64.1904 41.1322Z" fill="white"/>
<path d="M99.8724 41.1322C99.3289 41.127 98.7898 41.2296 98.2861 41.4343C97.7825 41.6389 97.3242 41.9414 96.9379 42.3245C96.5611 42.7017 96.2622 43.1496 96.0583 43.6426C95.8544 44.1356 95.7495 44.6641 95.7495 45.1978C95.7495 45.7315 95.8544 46.2599 96.0583 46.7529C96.2622 47.246 96.5611 47.6939 96.9379 48.0711C97.3242 48.4541 97.7825 48.7567 98.2861 48.9613C98.7898 49.1659 99.3289 49.2686 99.8724 49.2633H116.092C117.703 49.2396 119.302 49.5429 120.793 50.1548C122.284 50.7668 123.637 51.6748 124.768 52.8241C125.918 53.9434 126.826 55.2867 127.437 56.7713C128.048 58.2559 128.349 59.8502 128.322 61.4559C128.333 63.0687 128.025 64.6677 127.414 66.1599C126.804 67.6522 125.903 69.0079 124.765 70.1483C123.628 71.2887 122.275 72.1911 120.786 72.8029C119.297 73.4147 117.701 73.7238 116.092 73.7122H87.6266V65.5811H116.076C116.609 65.5874 117.139 65.4857 117.632 65.2822C118.125 65.0787 118.573 64.7776 118.947 64.3968C119.328 64.0089 119.628 63.5494 119.831 63.0447C120.034 62.54 120.135 62 120.129 61.4559C120.131 60.9216 120.027 60.3921 119.825 59.898C119.622 59.4038 119.323 58.9547 118.947 58.5765C118.57 58.1983 118.123 57.8985 117.63 57.6942C117.137 57.49 116.609 57.3854 116.076 57.3864H99.8724C98.2609 57.4129 96.6608 57.1109 95.1692 56.4988C93.6777 55.8867 92.3258 54.9772 91.1957 53.8256C90.0426 52.7068 89.1309 51.3628 88.517 49.8767C87.9031 48.3906 87.6001 46.794 87.6266 45.1858C87.616 43.5728 87.9258 41.9737 88.5378 40.4818C89.1499 38.9898 90.052 37.6348 91.1917 36.4957C92.3313 35.3565 93.6858 34.456 95.1761 33.8465C96.6664 33.237 98.2628 32.9307 99.8724 32.9455H128.322V41.1322H99.8724Z" fill="white"/>
<path d="M163.116 73.7121V53.3248C163.116 47.9199 165.259 42.7363 169.072 38.9145C172.886 35.0926 178.059 32.9455 183.452 32.9455H191.565V41.1322H183.452C181.855 41.1095 180.27 41.4136 178.795 42.0258C177.319 42.6381 175.984 43.5457 174.87 44.693C173.702 45.8017 172.777 47.1415 172.153 48.6274C171.529 50.1133 171.22 51.7129 171.246 53.3248V73.7121H163.116Z" fill="white"/>
<path d="M159.92 41.1322C161.234 38.5525 162.95 36.1994 165.004 34.1616C165.432 33.7377 165.868 33.3323 166.313 32.9455H139.6V12.598H131.495V53.3249C131.453 56.0089 131.957 58.6734 132.976 61.1562C133.994 63.6389 135.506 65.8881 137.419 67.7669C139.552 69.9288 142.143 71.5807 145.001 72.5994C147.199 73.3519 149.508 73.7281 151.83 73.7122H159.944V65.5811H151.87C149.414 65.6257 147.009 64.8851 145.001 63.4669C144.366 63.0175 143.771 62.5121 143.225 61.9567C142.057 60.848 141.132 59.5082 140.508 58.0223C139.884 56.5364 139.575 54.9368 139.6 53.3249V41.1322H159.92Z" fill="white"/>
<path d="M211.172 32.9455C216.556 32.9768 221.711 35.1337 225.52 38.9485C229.328 42.7634 231.482 47.9288 231.515 53.3248C231.517 56.6765 230.694 59.9769 229.12 62.9339C227.546 65.8909 225.268 68.4134 222.489 70.2779C219.71 72.1424 216.515 73.2915 213.187 73.6234C209.859 73.9554 206.5 73.46 203.409 72.181C200.317 70.9021 197.588 68.8791 195.463 66.2911C193.338 63.7031 191.882 60.6299 191.225 57.3436C190.568 54.0574 190.729 50.6594 191.694 47.4505C192.66 44.2415 194.4 41.3207 196.761 38.9464C198.625 37.0115 200.867 35.4807 203.345 34.4485C205.824 33.4163 208.488 32.9047 211.172 32.9455ZM211.172 65.5811C214.404 65.5622 217.497 64.2628 219.776 61.9666C222.056 59.6704 223.336 56.5638 223.338 53.3248C223.347 51.3096 222.859 49.3233 221.917 47.5428C220.975 45.7623 219.609 44.2428 217.939 43.1195C216.269 41.9963 214.348 41.3041 212.347 41.1047C210.346 40.9052 208.327 41.2047 206.469 41.9763C204.612 42.748 202.973 43.968 201.7 45.5277C200.426 47.0874 199.557 48.9384 199.17 50.916C198.783 52.8936 198.89 54.9365 199.481 56.8627C200.072 58.789 201.129 60.5389 202.558 61.9567C203.666 63.1244 205.004 64.0494 206.486 64.6732C207.969 65.297 209.564 65.6061 211.172 65.5811Z" fill="white"/>
<path d="M254.976 32.9455C260.36 32.9768 265.515 35.1337 269.323 38.9486C273.132 42.7635 275.286 47.9288 275.319 53.3249C275.315 58.7306 273.17 63.9138 269.356 67.7362C265.542 71.5586 260.37 73.7079 254.976 73.7122H234.616V12.598H242.73V37.0071C246.249 34.3287 250.557 32.8998 254.976 32.9455ZM254.976 65.5811C258.208 65.5622 261.301 64.2628 263.58 61.9666C265.86 59.6704 267.14 56.5638 267.142 53.3249C267.142 50.0827 265.857 46.9734 263.569 44.6809C261.282 42.3884 258.179 41.1004 254.944 41.1004C251.709 41.1004 248.606 42.3884 246.318 44.6809C244.031 46.9734 242.746 50.0827 242.746 53.3249V65.5811H254.976Z" fill="white"/>
<path d="M287.827 24.7509C287.309 25.2881 286.689 25.7154 286.003 26.0072C285.316 26.299 284.579 26.4494 283.833 26.4494C283.088 26.4494 282.35 26.299 281.664 26.0072C280.978 25.7154 280.358 25.2881 279.84 24.7509C279.306 24.2369 278.882 23.6197 278.593 22.9366C278.304 22.2535 278.156 21.5187 278.159 20.7768C278.149 20.0208 278.293 19.2708 278.582 18.5725C278.871 17.8741 279.299 17.2422 279.84 16.7152C280.91 15.6746 282.342 15.0927 283.833 15.0927C285.324 15.0927 286.757 15.6746 287.827 16.7152C288.369 17.2415 288.799 17.8732 289.089 18.5715C289.38 19.2699 289.525 20.0202 289.516 20.7768C289.519 21.5195 289.371 22.255 289.08 22.9384C288.79 23.6217 288.363 24.2384 287.827 24.7509ZM279.777 32.9456V73.7122H287.89V32.9456H279.777Z" fill="white"/>
<path d="M319.512 65.5811V73.7122H311.398C308.724 73.7248 306.073 73.206 303.6 72.1859C301.126 71.1657 298.879 69.6643 296.988 67.7686C295.097 65.8728 293.6 63.6202 292.583 61.1411C291.566 58.6619 291.049 56.0053 291.063 53.3249V12.598H299.176V32.9455H315.459V41.1322H299.176V53.3249C299.207 56.5644 300.505 59.6626 302.79 61.9542C305.075 64.2458 308.166 65.5479 311.398 65.5811H319.512Z" fill="white"/>
<path d="M261.082 46.0363C261.603 46.6328 261.883 47.4028 261.867 48.1953C261.851 48.9879 261.54 49.7458 260.995 50.3205C257.823 53.6587 253.484 53.6508 249.233 58.1654C253.484 53.6508 253.199 49.2713 256.371 45.933C256.911 45.3547 257.647 44.9991 258.435 44.9359C259.223 44.8727 260.005 45.1064 260.63 45.5912C259.698 44.8228 258.51 44.4379 257.305 44.5147C256.101 44.5914 254.97 45.124 254.143 46.0046C249.455 50.9881 249.852 57.5216 243.507 64.2856C249.852 57.5375 256.387 57.5534 261.074 52.5619C261.903 51.6789 262.365 50.5128 262.367 49.3007C262.368 48.0886 261.909 46.9214 261.082 46.0363Z" fill="url(#paint0_linear_1483_463)"/>
<g style="mix-blend-mode:soft-light">
<path d="M260.615 45.5913C260.695 45.6631 260.782 45.7269 260.862 45.8067C260.784 45.7304 260.701 45.6585 260.615 45.5913Z" fill="url(#paint1_linear_1483_463)"/>
</g>
<g style="mix-blend-mode:soft-light">
<path d="M260.86 45.8058C260.939 45.879 261.013 45.9562 261.083 46.0372C261.015 45.9543 260.941 45.8769 260.86 45.8058Z" fill="url(#paint2_linear_1483_463)"/>
</g>
<path d="M262.465 35.1317L271.323 43.3379L270.435 44.3009C270.303 44.4442 270.144 44.5601 269.967 44.6418C269.79 44.7235 269.599 44.7695 269.404 44.7772C269.209 44.7848 269.015 44.754 268.832 44.6865C268.65 44.6189 268.482 44.5159 268.339 44.3834L261.659 38.195C261.37 37.9275 261.199 37.5558 261.184 37.162C261.168 36.7681 261.31 36.3842 261.577 36.0947L262.465 35.1317Z" fill="url(#paint3_linear_1483_463)"/>
<path d="M286.368 46.4894L287.732 35.4334C296.242 26.8333 302.603 13.973 303.214 4.14899C303.214 3.81517 303.214 3.48929 303.254 3.16341V3.02034C303.254 2.68651 303.254 2.35269 303.254 2.02681V1.93143C303.254 1.65589 303.238 1.39095 303.206 1.1366C303.206 1.05712 303.206 0.977637 303.206 0.906102C303.206 0.59612 303.15 0.294086 303.111 0C302.809 0 302.508 0 302.207 0H301.969H301.128H301.041L300.057 0.0715345H299.907L298.931 0.190759C293.989 1.0387 289.239 2.76979 284.909 5.30149H284.861C278.875 8.63594 273.509 12.9813 268.999 18.1459L258.117 20.4111C257.452 20.5512 256.825 20.8323 256.278 21.2353C255.731 21.6384 255.276 22.1541 254.944 22.7479L248.6 34.2332C248.56 34.3172 248.542 34.4099 248.547 34.5028C248.552 34.5957 248.58 34.6858 248.629 34.7649C248.678 34.844 248.746 34.9095 248.827 34.9554C248.907 35.0014 248.998 35.0263 249.091 35.028L262.527 35.1472L263.582 36.1169L265.414 37.8099L258.553 45.5356C258.215 45.9035 258.036 46.3911 258.056 46.8911C258.076 47.3912 258.293 47.8629 258.66 48.2022C259.027 48.5416 259.514 48.721 260.013 48.7009C260.512 48.6807 260.983 48.4628 261.321 48.0949L268.459 40.6315L271.362 43.318L272.576 56.7109C272.583 56.8082 272.615 56.902 272.67 56.9829C272.724 57.0637 272.799 57.1287 272.887 57.1714C272.974 57.2141 273.071 57.2329 273.169 57.226C273.266 57.2191 273.359 57.1867 273.44 57.1321L284.322 49.8436C284.884 49.4654 285.358 48.9699 285.711 48.3909C286.064 47.8119 286.288 47.1633 286.368 46.4894ZM285.115 27.2149C283.84 27.4648 282.519 27.3299 281.32 26.8274C280.122 26.325 279.099 25.4774 278.381 24.392C277.663 23.3066 277.282 22.0323 277.288 20.7301C277.293 19.428 277.683 18.1566 278.409 17.0769C279.136 15.9973 280.166 15.1578 281.368 14.6648C282.571 14.1718 283.892 14.0474 285.166 14.3073C286.439 14.5673 287.606 15.1999 288.521 16.1251C289.435 17.0504 290.055 18.2266 290.302 19.505C290.467 20.3526 290.463 21.2244 290.292 22.0707C290.12 22.9169 289.784 23.721 289.302 24.4369C288.821 25.1529 288.203 25.7668 287.484 26.2434C286.766 26.7201 285.961 27.0502 285.115 27.2149Z" fill="url(#paint4_linear_1483_463)"/>
<defs>
<linearGradient id="paint0_linear_1483_463" x1="243.547" y1="64.3165" x2="260.883" y2="45.8383" gradientUnits="userSpaceOnUse">
<stop stop-color="#FED661"/>
<stop offset="0.5" stop-color="#F6A23B"/>
<stop offset="1" stop-color="#EE7219"/>
</linearGradient>
<linearGradient id="paint1_linear_1483_463" x1="289.252" y1="55.0428" x2="289.252" y2="55.0385" gradientUnits="userSpaceOnUse">
<stop stop-color="#FED661"/>
<stop offset="0.5" stop-color="#F6A23B"/>
<stop offset="1" stop-color="#EE7219"/>
</linearGradient>
<linearGradient id="paint2_linear_1483_463" x1="286.813" y1="55.9579" x2="286.813" y2="55.9532" gradientUnits="userSpaceOnUse">
<stop stop-color="#FED661"/>
<stop offset="0.5" stop-color="#F6A23B"/>
<stop offset="1" stop-color="#EE7219"/>
</linearGradient>
<linearGradient id="paint3_linear_1483_463" x1="-59372.1" y1="-55256.1" x2="-59365.3" y2="-55263.5" gradientUnits="userSpaceOnUse">
<stop stop-color="#FED661"/>
<stop offset="0.5" stop-color="#F6A23B"/>
<stop offset="1" stop-color="#EE7219"/>
</linearGradient>
<linearGradient id="paint4_linear_1483_463" x1="4422" y1="3797.43" x2="6472.28" y2="5669.51" gradientUnits="userSpaceOnUse">
<stop stop-color="#FFB800"/>
<stop offset="1" stop-color="#EE7219"/>
</linearGradient>
</defs>
</svg>
